HIERARCHY
ROOT Hips
{
	OFFSET -3.958830 18.904000 13.208200
	CHANNELS 6 Xposition Yposition Zposition Zrotation Yrotation Xrotation 
	JOINT LHipJoint
	{
		OFFSET 0.000000 0.000000 0.000000
		CHANNELS 3 Zrotation Yrotation Xrotation
		JOINT LeftUpLeg
		{
			OFFSET 1.800000 -1.400000 0.085000
			CHANNELS 3 Zrotation Yrotation Xrotation
			JOINT LeftLeg
			{
				OFFSET 2.215000 -6.000000 0.000000
				CHANNELS 3 Zrotation Yrotation Xrotation
				JOINT LeftFoot
				{
					OFFSET 2.500000 -6.900000 0.000000
					CHANNELS 3 Zrotation Yrotation Xrotation
					JOINT LeftToeBase
					{
						OFFSET 0.200000 -0.500000 1.950000
						CHANNELS 3 Zrotation Yrotation Xrotation
						End Site
						{
							OFFSET 0.000000 0.000000 0.000000
						}
					}
				}
			}
		}
	}
	JOINT RHipJoint
	{
		OFFSET 0.000000 0.000000 0.000000
		CHANNELS 3 Zrotation Yrotation Xrotation
		JOINT RightUpLeg
		{
			OFFSET -1.800000 -1.400000 0.085000
			CHANNELS 3 Zrotation Yrotation Xrotation
			JOINT RightLeg
			{
				OFFSET -2.215000 -6.000000 0.000000
				CHANNELS 3 Zrotation Yrotation Xrotation
				JOINT RightFoot
				{
					OFFSET -2.500000 -6.900000 0.000000
					CHANNELS 3 Zrotation Yrotation Xrotation
					JOINT RightToeBase
					{
						OFFSET -0.200000 -0.500000 1.950000
						CHANNELS 3 Zrotation Yrotation Xrotation
						End Site
						{
							OFFSET 0.000000 0.000000 0.000000
						}
					}
				}
			}
		}
	}
	JOINT LowerBack
	{
		OFFSET 0.000000 0.000000 0.000000
		CHANNELS 3 Zrotation Yrotation Xrotation
		JOINT Spine
		{
			OFFSET -0.087000 1.940000 -0.288900
			CHANNELS 3 Zrotation Yrotation Xrotation
			JOINT Spine1
			{
				OFFSET 0.000000 1.950000 0.060000
				CHANNELS 3 Zrotation Yrotation Xrotation
				JOINT Neck
				{
					OFFSET 0.000000 0.000000 0.000000
					CHANNELS 3 Zrotation Yrotation Xrotation
					JOINT Neck1
					{
						OFFSET 0.000000 1.600000 0.340000
						CHANNELS 3 Zrotation Yrotation Xrotation
						JOINT Head
						{
							OFFSET 0.000000 1.667000 -0.240000
							CHANNELS 3 Zrotation Yrotation Xrotation
							End Site
							{
								OFFSET 0.000000 0.000000 0.000000
							}
						}
					}
				}
				JOINT LeftShoulder
				{
					OFFSET 0.000000 0.000000 0.000000
					CHANNELS 3 Zrotation Yrotation Xrotation
					JOINT LeftArm
					{
						OFFSET 2.700000 1.550000 -0.730000
						CHANNELS 3 Zrotation Yrotation Xrotation
						JOINT LeftForeArm
						{
							OFFSET 5.450000 0.000000 0.000000
							CHANNELS 3 Zrotation Yrotation Xrotation
							JOINT LeftHand
							{
								OFFSET 3.450000 0.000000 0.000000
								CHANNELS 3 Zrotation Yrotation Xrotation
								JOINT LeftHandIndex1
								{
									OFFSET 0.750000 0.000000 0.000000
									CHANNELS 3 Zrotation Yrotation Xrotation
									End Site
									{
										OFFSET 0.000000 0.000000 0.000000
									}
								}
							}
						}
					}
				}
				JOINT RightShoulder
				{
					OFFSET 0.000000 0.000000 0.000000
					CHANNELS 3 Zrotation Yrotation Xrotation
					JOINT RightArm
					{
						OFFSET -2.700000 1.550000 -0.730000
						CHANNELS 3 Zrotation Yrotation Xrotation
						JOINT RightForeArm
						{
							OFFSET -5.450000 0.000000 0.000000
							CHANNELS 3 Zrotation Yrotation Xrotation
							JOINT RightHand
							{
								OFFSET -3.450000 0.000000 0.000000
								CHANNELS 3 Zrotation Yrotation Xrotation
								JOINT RightHandIndex1
								{
									OFFSET -0.750000 0.000000 0.000000
									CHANNELS 3 Zrotation Yrotation Xrotation
									End Site
									{
										OFFSET 0.000000 0.000000 0.000000
									}
								}
							}
						}
					}
				}
			}
		}
	}
}
MOTION
Frames: 8
Frame Time: 0.016667
2.286060 17.729160 -0.721920 -13.924321 12.898114 -7.774622 -14.917502 11.618172 1.411879 16.665254 -1.083172 -5.421710 -4.898609 5.656553 9.950588 -0.343178 4.628038 3.204045 0.248710 0.070950 -0.056830 18.917625 -8.652603 6.240127 -33.910718 -0.511688 -45.562197 73.260898 -53.130634 40.081323 -2.587197 -12.595085 0.477643 0.144200 0.550110 0.209030 -4.841618 -0.990063 -8.910797 33.600282 -11.711883 14.467748 -13.719921 -6.025910 11.234474 6.265046 0.762576 -13.457099 0.741929 -13.732937 26.874296 -1.567910 -15.099240 -6.019360 3.879040 -31.687982 8.279801 5.783873 -13.928970 -7.873689 96.674190 -60.428738 -63.478441 -3.713412 1.971673 0.153960 0.303200 -0.247660 0.305030 -17.668543 30.750647 2.127306 -13.046285 18.115208 -14.966967 -55.816318 66.009825 -30.674448 1.474246 -1.230233 -0.176420 0.320720 0.074040 0.069750 
2.221790 17.820900 -0.707390 -13.387774 11.916428 -6.728563 -14.915842 11.706771 1.407977 16.728021 -1.217803 -7.710229 -5.636659 6.297873 13.087162 -0.310051 4.691609 3.134435 0.203600 -0.003820 -0.009610 18.894299 -8.637415 6.299764 -33.541755 0.177602 -45.672673 70.375525 -53.097876 42.003313 -2.629085 -12.742344 0.442663 0.058640 0.467990 0.203210 -4.801729 -1.132535 -8.958650 33.115194 -11.137926 14.818083 -14.043226 -5.197986 9.482509 6.075660 1.268918 -14.120497 1.280034 -14.380774 27.751766 -3.235950 -14.427090 -5.315500 3.035620 -31.453699 8.665708 6.226670 -13.128609 -7.294869 98.475779 -60.418041 -65.081996 -3.665601 1.934226 0.199710 0.261760 -0.199230 0.262820 -16.791448 30.652350 2.804664 -12.143906 17.106363 -14.784968 -60.641046 66.729421 -33.739717 1.458998 -1.003015 -0.165670 0.269490 0.059800 0.031680 
2.120290 17.977840 -0.699430 -12.454072 10.115989 -6.270378 -14.951861 11.926070 1.521067 16.795333 -1.397354 -11.082205 -6.797407 7.977872 20.047580 -0.162726 5.252515 2.874013 0.134040 -0.087340 -0.012120 18.797366 -8.600252 6.285533 -32.611729 1.832380 -43.985693 63.608686 -52.297607 46.537981 -2.716292 -13.140116 0.347844 -0.049480 0.395640 0.174900 -4.601808 -1.543709 -9.053169 31.492329 -10.497059 17.434514 -13.490823 -4.311990 6.983328 5.662963 1.229172 -15.232674 0.822123 -14.692564 29.096837 -3.154420 -14.537480 -5.251970 1.394039 -30.832673 9.846829 6.277676 -9.609778 -6.583870 105.244971 -59.668675 -73.187303 -3.649833 2.085914 0.257810 0.190680 -0.141330 0.238260 -14.620500 31.174931 3.517430 -13.467019 15.412741 -15.086961 -65.474942 67.648909 -36.626067 1.484464 -0.718017 -0.154810 0.234000 0.044730 0.022900 
1.979460 18.145480 -0.714280 -10.521913 7.044541 -7.344591 -15.065191 12.045360 1.985366 17.384043 -1.701653 -13.384803 -10.136720 11.509689 28.895020 0.209214 6.786565 2.243469 0.201160 -0.009900 0.088890 18.617168 -8.466113 6.070978 -30.959596 4.301632 -40.605847 54.872209 -48.909728 51.591904 -2.828070 -13.548828 0.208856 -0.073650 0.204430 0.123980 -4.164632 -2.065780 -9.285202 26.812985 -9.266099 23.333679 -11.856109 -3.121594 4.854858 5.394240 1.707787 -16.388666 1.055433 -14.956778 31.607700 -0.858200 -14.867790 -8.484260 -0.883117 -30.674826 10.363211 6.410459 -6.224444 -7.262250 108.427774 -58.063428 -75.879137 -3.479844 2.307332 0.355710 0.027310 -0.012970 0.222840 -11.834026 32.265085 4.768354 -14.566206 13.227429 -15.699340 -68.237866 66.068589 -37.249237 1.665462 -0.692824 -0.102640 0.165450 -0.062220 -0.001280 
1.830070 18.272140 -0.724420 -7.930710 4.282431 -7.742678 -15.217346 11.839266 2.793680 17.642747 -2.850977 -17.240281 -14.405989 16.622166 38.963485 0.759100 9.113145 1.405290 0.217320 0.004740 0.143020 18.448422 -8.379693 5.567376 -28.931286 5.862011 -36.796394 45.035447 -43.565239 55.520272 -2.790668 -13.671280 0.121542 -0.108840 0.092290 0.112530 -3.709620 -2.275458 -9.531601 20.923680 -7.144612 27.488305 -9.722819 -1.662355 3.495771 4.978385 2.696752 -17.548271 2.568498 -15.427338 33.130808 0.834660 -14.839680 -10.721060 -1.998817 -30.744906 10.430114 5.047270 -3.741652 -8.598332 106.795693 -56.595268 -72.190166 -3.385921 2.343714 0.423090 -0.061030 0.064000 0.187180 -9.857703 32.958159 6.185095 -13.979186 11.486493 -16.180002 -68.919871 62.515811 -35.931825 1.892289 -0.856736 -0.069480 0.114060 -0.092990 -0.028700 
1.690580 18.365240 -0.735180 -5.355605 0.830240 -7.872679 -15.311509 11.404757 3.745163 18.262871 -4.098922 -20.984360 -20.006841 23.039676 47.129056 1.465476 11.575834 0.663886 0.206980 -0.000170 0.115980 18.371543 -8.444278 4.871517 -26.480763 6.890225 -33.281206 35.993323 -36.995000 57.222646 -2.565729 -13.248743 0.183827 -0.139170 0.072380 0.107290 -3.490837 -2.022397 -9.700648 16.312500 -5.084721 29.665142 -8.839976 -0.050017 2.933570 4.476409 2.363740 -17.964331 1.843341 -15.107223 34.482846 3.234850 -15.754840 -10.999970 -3.180145 -30.763640 9.902572 3.556961 -2.446977 -10.243081 99.221783 -55.794107 -61.572970 -3.314869 2.286614 0.429170 -0.096050 0.079220 0.186090 -7.314405 34.123225 7.187792 -14.447290 10.854648 -16.451707 -66.228950 59.162580 -32.360520 2.108491 -1.079560 -0.041710 0.089000 -0.093360 -0.011590 
1.549130 18.412630 -0.743300 -3.228473 -2.529058 -8.288089 -15.442188 10.898361 4.718356 19.804788 -5.147794 -24.795361 -26.777073 30.730267 53.320274 2.110399 13.881900 0.070304 0.256060 0.076860 0.094430 18.292678 -8.519283 4.088957 -24.252141 7.015827 -29.869126 29.100903 -31.111521 56.752164 -2.241786 -12.432308 0.352388 -0.059220 0.123480 0.095120 -3.237890 -1.697804 -9.759204 11.779261 -2.736580 30.336151 -6.830606 1.650323 5.453155 4.345248 1.521711 -17.721676 1.090519 -14.742945 32.641807 5.104780 -16.112360 -12.185390 -2.821583 -30.010987 8.942053 0.852856 -2.917183 -12.155848 92.190357 -52.729131 -52.781299 -3.345826 2.470632 0.395270 -0.078870 0.042790 0.214110 -6.725487 34.916186 8.019035 -13.733597 8.910086 -17.928363 -67.336744 55.140249 -31.965989 2.330603 -1.356879 -0.051740 0.135280 -0.088890 0.012270 
1.434750 18.436220 -0.737760 -1.857962 -5.218806 -8.609461 -15.505135 10.561077 5.512266 21.188284 -5.763194 -28.075005 -32.622300 37.439360 57.004112 2.564431 15.313965 -0.243390 0.285410 0.135700 0.100080 18.251128 -8.798261 3.312481 -22.006411 6.386036 -26.434047 22.965631 -25.366861 54.286340 -1.848923 -11.151120 0.680956 -0.010570 0.135110 0.066820 -3.130437 -1.264169 -9.742430 9.093693 -1.282692 30.162602 -6.118248 3.021693 7.177571 4.196480 1.591367 -17.796007 1.536407 -14.443534 32.698305 6.220380 -15.746460 -13.521040 -2.488700 -29.344162 8.535240 -2.120587 -3.446308 -13.217456 87.732385 -48.956348 -46.758049 -3.350228 2.602491 0.400700 -0.086750 0.048320 0.226840 -6.479057 34.880949 8.689618 -9.941356 8.566920 -19.366664 -70.325512 51.469972 -33.219704 2.517827 -1.480101 -0.067980 0.187110 -0.097700 0.017720 
